<?xml version="1.0" encoding="utf-8"?>
<!-- Generator: Adobe Illustrator 16.0.0, SVG Export Plug-In . SVG Version: 6.00 Build 0)  -->
<!DOCTYPE svg PUBLIC "-//W3C//DTD SVG 1.1//EN" "http://www.w3.org/Graphics/SVG/1.1/DTD/svg11.dtd">
<svg version="1.1" xmlns="http://www.w3.org/2000/svg" xmlns:xlink="http://www.w3.org/1999/xlink" x="0px" y="0px"
	 width="18.813px" height="18.922px" viewBox="0 0 18.813 18.922" enable-background="new 0 0 18.813 18.922" xml:space="preserve">
<g id="Background">
</g>
<g id="zzz">
	<g>
		<path d="M17.379,5.441l1.329,13.344H0.089l1.33-13.344h2.66V5.274c0-1.418,0.505-2.634,1.517-3.648
			c1.011-1.015,2.224-1.522,3.637-1.522h0.332c1.413,0,2.625,0.508,3.637,1.522s1.518,2.23,1.518,3.648v0.167H17.379z M1.585,17.451
			h15.627L16.173,6.775h-1.454v1.502c0.442,0.277,0.665,0.667,0.665,1.167c0,0.39-0.125,0.709-0.374,0.959
			c-0.25,0.251-0.568,0.376-0.956,0.376c-0.389,0-0.707-0.125-0.956-0.376c-0.249-0.25-0.374-0.569-0.374-0.959
			c0-0.5,0.222-0.89,0.665-1.167V6.775H5.409v1.502c0.442,0.277,0.664,0.667,0.664,1.167c0,0.39-0.124,0.709-0.374,0.959
			c-0.249,0.251-0.567,0.376-0.955,0.376c-0.389,0-0.707-0.125-0.956-0.376c-0.25-0.25-0.374-0.569-0.374-0.959
			c0-0.5,0.221-0.89,0.665-1.167V6.775H2.624L1.585,17.451z M5.409,5.274v0.167h7.979V5.274c0-1.057-0.374-1.96-1.122-2.711
			c-0.748-0.75-1.649-1.126-2.702-1.126H9.232c-1.054,0-1.953,0.376-2.701,1.126C5.783,3.314,5.409,4.218,5.409,5.274z"/>
	</g>
</g>
</svg>
